<svg width="1230" height="240" viewBox="0 0 1230 240" fill="none" xmlns="http://www.w3.org/2000/svg">
<g clip-path="url(#clip0_1_2)">
<path d="M1067.56 79.4C1075.16 77.2 1084.96 75.2 1096.96 73.4C1108.96 71.4 1121.56 70.4 1134.76 70.4C1148.16 70.4 1159.26 72.2 1168.06 75.8C1177.06 79.2 1184.16 84.1 1189.36 90.5C1194.56 96.9 1198.26 104.5 1200.46 113.3C1202.66 122.1 1203.76 131.9 1203.76 142.7V231.8H1159.06V148.1C1159.06 133.7 1157.16 123.5 1153.36 117.5C1149.56 111.5 1142.46 108.5 1132.06 108.5C1128.86 108.5 1125.46 108.7 1121.86 109.1C1118.26 109.3 1115.06 109.6 1112.26 110V231.8H1067.56V79.4Z" fill="#EB593C"/>
<path d="M1040.54 231.8H995.844V74H1040.54V231.8ZM1044.74 28.4C1044.74 36.6 1042.04 43.1 1036.64 47.9C1031.44 52.5 1025.24 54.8 1018.04 54.8C1010.84 54.8 1004.54 52.5 999.144 47.9C993.944 43.1 991.344 36.6 991.344 28.4C991.344 20.2 993.944 13.8 999.144 9.2C1004.54 4.40001 1010.84 2.00001 1018.04 2.00001C1025.24 2.00001 1031.44 4.40001 1036.64 9.2C1042.04 13.8 1044.74 20.2 1044.74 28.4Z" fill="#EB593C"/>
<path d="M979.381 113.6C975.381 112.6 970.681 111.6 965.281 110.6C959.881 109.4 954.081 108.8 947.881 108.8C945.081 108.8 941.681 109.1 937.681 109.7C933.881 110.1 930.981 110.6 928.981 111.2V231.8H884.281V82.4C892.281 79.6 901.681 77 912.481 74.6C923.481 72 935.681 70.7 949.081 70.7C951.481 70.7 954.381 70.9 957.781 71.3C961.181 71.5 964.581 71.9 967.981 72.5C971.381 72.9 974.781 73.5 978.181 74.3C981.581 74.9 984.481 75.7 986.881 76.7L979.381 113.6Z" fill="white"/>
<path d="M716.586 154.1C716.586 140.1 718.686 127.9 722.886 117.5C727.286 106.9 732.986 98.1 739.986 91.1C746.986 84.1 754.986 78.8 763.986 75.2C773.186 71.6 782.586 69.8 792.186 69.8C814.586 69.8 832.286 76.7 845.286 90.5C858.286 104.1 864.786 124.2 864.786 150.8C864.786 153.4 864.686 156.3 864.486 159.5C864.286 162.5 864.086 165.2 863.886 167.6H762.486C763.486 176.8 767.786 184.1 775.386 189.5C782.986 194.9 793.186 197.6 805.986 197.6C814.186 197.6 822.186 196.9 829.986 195.5C837.986 193.9 844.486 192 849.486 189.8L855.486 226.1C853.086 227.3 849.886 228.5 845.886 229.7C841.886 230.9 837.386 231.9 832.386 232.7C827.586 233.7 822.386 234.5 816.786 235.1C811.186 235.7 805.586 236 799.986 236C785.786 236 773.386 233.9 762.786 229.7C752.386 225.5 743.686 219.8 736.686 212.6C729.886 205.2 724.786 196.5 721.386 186.5C718.186 176.5 716.586 165.7 716.586 154.1ZM821.586 137C821.386 133.2 820.686 129.5 819.486 125.9C818.486 122.3 816.786 119.1 814.386 116.3C812.186 113.5 809.286 111.2 805.686 109.4C802.286 107.6 797.986 106.7 792.786 106.7C787.786 106.7 783.486 107.6 779.886 109.4C776.286 111 773.286 113.2 770.886 116C768.486 118.8 766.586 122.1 765.186 125.9C763.986 129.5 763.086 133.2 762.486 137H821.586Z" fill="white"/>
<path d="M610.145 34.7L654.845 27.5V74H708.545V111.2H654.845V166.7C654.845 176.1 656.445 183.6 659.645 189.2C663.045 194.8 669.745 197.6 679.745 197.6C684.545 197.6 689.445 197.2 694.445 196.4C699.645 195.4 704.345 194.1 708.545 192.5L714.845 227.3C709.445 229.5 703.445 231.4 696.845 233C690.245 234.6 682.145 235.4 672.545 235.4C660.345 235.4 650.245 233.8 642.245 230.6C634.245 227.2 627.845 222.6 623.045 216.8C618.245 210.8 614.845 203.6 612.845 195.2C611.045 186.8 610.145 177.5 610.145 167.3V34.7Z" fill="white"/>
<path d="M526.339 199.7C534.539 199.7 540.339 198.9 543.739 197.3C547.139 195.7 548.839 192.6 548.839 188C548.839 184.4 546.639 181.3 542.239 178.7C537.839 175.9 531.139 172.8 522.139 169.4C515.139 166.8 508.739 164.1 502.939 161.3C497.339 158.5 492.539 155.2 488.539 151.4C484.539 147.4 481.439 142.7 479.239 137.3C477.039 131.9 475.939 125.4 475.939 117.8C475.939 103 481.439 91.3 492.439 82.7C503.439 74.1 518.539 69.8 537.739 69.8C547.339 69.8 556.539 70.7 565.339 72.5C574.139 74.1 581.139 75.9 586.339 77.9L578.539 112.7C573.339 110.9 567.639 109.3 561.439 107.9C555.439 106.5 548.639 105.8 541.039 105.8C527.039 105.8 520.039 109.7 520.039 117.5C520.039 119.3 520.339 120.9 520.939 122.3C521.539 123.7 522.739 125.1 524.539 126.5C526.339 127.7 528.739 129.1 531.739 130.7C534.939 132.1 538.939 133.7 543.739 135.5C553.539 139.1 561.639 142.7 568.039 146.3C574.439 149.7 579.439 153.5 583.039 157.7C586.839 161.7 589.439 166.2 590.839 171.2C592.439 176.2 593.239 182 593.239 188.6C593.239 204.2 587.339 216 575.539 224C563.939 232 547.439 236 526.039 236C512.039 236 500.339 234.8 490.939 232.4C481.739 230 475.339 228 471.739 226.4L479.239 190.1C486.839 193.1 494.639 195.5 502.639 197.3C510.639 198.9 518.539 199.7 526.339 199.7Z" fill="white"/>
<path d="M390.519 200.6C394.919 200.6 399.119 200.5 403.119 200.3C407.119 200.1 410.319 199.8 412.719 199.4V165.5C410.919 165.1 408.219 164.7 404.619 164.3C401.019 163.9 397.719 163.7 394.719 163.7C390.519 163.7 386.519 164 382.719 164.6C379.119 165 375.919 165.9 373.119 167.3C370.319 168.7 368.119 170.6 366.519 173C364.919 175.4 364.119 178.4 364.119 182C364.119 189 366.419 193.9 371.019 196.7C375.819 199.3 382.319 200.6 390.519 200.6ZM386.919 69.8C400.119 69.8 411.119 71.3 419.919 74.3C428.719 77.3 435.719 81.6 440.919 87.2C446.319 92.8 450.119 99.6 452.319 107.6C454.519 115.6 455.619 124.5 455.619 134.3V227.3C449.219 228.7 440.319 230.3 428.919 232.1C417.519 234.1 403.719 235.1 387.519 235.1C377.319 235.1 368.019 234.2 359.619 232.4C351.419 230.6 344.319 227.7 338.319 223.7C332.319 219.5 327.719 214.1 324.519 207.5C321.319 200.9 319.719 192.8 319.719 183.2C319.719 174 321.519 166.2 325.119 159.8C328.919 153.4 333.919 148.3 340.119 144.5C346.319 140.7 353.419 138 361.419 136.4C369.419 134.6 377.719 133.7 386.319 133.7C392.119 133.7 397.219 134 401.619 134.6C406.219 135 409.919 135.6 412.719 136.4V132.2C412.719 124.6 410.419 118.5 405.819 113.9C401.219 109.3 393.219 107 381.819 107C374.219 107 366.719 107.6 359.319 108.8C351.919 109.8 345.519 111.3 340.119 113.3L334.419 77.3C337.019 76.5 340.219 75.7 344.019 74.9C348.019 73.9 352.319 73.1 356.919 72.5C361.519 71.7 366.319 71.1 371.319 70.7C376.519 70.1 381.719 69.8 386.919 69.8Z" fill="white"/>
<path d="M289.4 -0.999985C297.8 -0.999985 305.5 -0.0999846 312.5 1.70002C319.5 3.30001 324.9 4.9 328.7 6.50001L320 42.2C316 40.4 311.6 39.1 306.8 38.3C302.2 37.3 297.9 36.8 293.9 36.8C288.5 36.8 283.9 37.6 280.1 39.2C276.5 40.6 273.6 42.6 271.4 45.2C269.4 47.8 267.9 50.9 266.9 54.5C266.1 58.1 265.7 62 265.7 66.2V74H320.9V111.2H265.7V231.8H221V65.6C221 45.2 226.7 29 238.1 17C249.7 5.00002 266.8 -0.999985 289.4 -0.999985Z" fill="white"/>
<rect x="37" y="16.05" width="64" height="208.95" rx="32" fill="#EDA7A2"/>
<rect x="72" y="16.05" width="64" height="208.95" rx="32" fill="#EE897E"/>
<rect x="107" y="16.05" width="64" height="208.95" rx="32" fill="#EE7460"/>
<rect x="142" y="15" width="64" height="208.95" rx="32" fill="#EB593C"/>
</g>
<defs>
<clipPath id="clip0_1_2">
<rect width="1230" height="240" fill="white"/>
</clipPath>
</defs>
</svg>
