<svg width="1662" height="235" viewBox="0 0 1662 235" fill="none" xmlns="http://www.w3.org/2000/svg">
<g clip-path="url(#clip0_2_4)">
<path d="M131.4 160.2C131.4 142.2 118.5 131.4 98.1 131.4H56.7V187.8H99C119.4 187.8 131.4 177.9 131.4 160.2ZM126.3 72.9C126.3 56.1 114.9 46.5 95.1 46.5H56.7V99H95.1C114.9 99 126.3 90 126.3 72.9ZM174 165.3C174 198.6 148.5 222 105 222H14.7V12.6H101.1C144.9 12.6 169.2 35.4 169.2 66.6C169.2 92.1 153.9 108 133.5 114.6C157.2 118.8 174 140.7 174 165.3ZM260.873 87.6C240.773 87.6 224.873 100.5 221.573 123.3H300.473C299.873 101.4 282.473 87.6 260.873 87.6ZM339.773 169.8C330.773 200.4 303.173 224.7 262.073 224.7C213.773 224.7 178.673 191.1 178.673 138.9C178.673 86.4 212.873 53.1 262.073 53.1C310.073 53.1 343.973 85.8 343.973 135.3C343.973 140.7 343.673 146.1 342.773 151.5H221.273C223.373 176.1 240.173 189.9 261.173 189.9C279.173 189.9 289.073 180.9 294.473 169.8H339.773ZM363.23 170.4V90.3H343.43V55.8H363.23V14.7H405.53V55.8H442.73V90.3H405.53V170.7C405.53 181.8 410.03 186.6 423.23 186.6H442.73V222H416.33C384.53 222 363.23 208.5 363.23 170.4ZM444.138 138.3C444.138 86.4 477.738 53.1 520.038 53.1C546.738 53.1 565.038 65.7 574.938 79.5V55.8H617.238V222H574.938V197.7C565.038 212.1 546.138 224.7 519.738 224.7C477.738 224.7 444.138 190.2 444.138 138.3ZM574.938 138.9C574.938 107.4 553.938 90 530.838 90C508.338 90 487.038 106.8 487.038 138.3C487.038 169.8 508.338 187.8 530.838 187.8C553.938 187.8 574.938 170.4 574.938 138.9ZM630.059 117C630.059 54.3 675.959 9.89999 736.259 9.89999C782.759 9.89999 820.559 34.8 834.659 77.7H786.359C776.459 57.6 758.459 47.7 735.959 47.7C699.359 47.7 673.259 74.4 673.259 117C673.259 159.3 699.359 186.3 735.959 186.3C758.459 186.3 776.459 176.4 786.359 156H834.659C820.559 199.2 782.759 223.8 736.259 223.8C675.959 223.8 630.059 179.7 630.059 117ZM1013.03 138.9C1013.03 191.1 974.632 224.7 926.332 224.7C878.332 224.7 842.032 191.1 842.032 138.9C842.032 86.4 879.532 53.1 927.532 53.1C975.532 53.1 1013.03 86.4 1013.03 138.9ZM884.632 138.9C884.632 171.9 903.832 188.1 926.332 188.1C948.532 188.1 969.832 171.9 969.832 138.9C969.832 105.6 949.132 89.7 926.932 89.7C904.732 89.7 884.632 105.6 884.632 138.9ZM1015.04 138.3C1015.04 86.4 1048.64 53.1 1091.24 53.1C1113.14 53.1 1134.14 63.3 1145.54 78.9V-2.86102e-06H1188.14V222H1145.54V197.4C1135.64 212.7 1117.04 224.7 1090.94 224.7C1048.64 224.7 1015.04 190.2 1015.04 138.3ZM1145.84 138.9C1145.84 107.4 1124.84 90 1101.74 90C1079.24 90 1057.94 106.8 1057.94 138.3C1057.94 169.8 1079.24 187.8 1101.74 187.8C1124.84 187.8 1145.84 170.4 1145.84 138.9ZM1282.56 87.6C1262.46 87.6 1246.56 100.5 1243.26 123.3H1322.16C1321.56 101.4 1304.16 87.6 1282.56 87.6ZM1361.46 169.8C1352.46 200.4 1324.86 224.7 1283.76 224.7C1235.46 224.7 1200.36 191.1 1200.36 138.9C1200.36 86.4 1234.56 53.1 1283.76 53.1C1331.76 53.1 1365.66 85.8 1365.66 135.3C1365.66 140.7 1365.36 146.1 1364.46 151.5H1242.96C1245.06 176.1 1261.86 189.9 1282.86 189.9C1300.86 189.9 1310.76 180.9 1316.16 169.8H1361.46Z" fill="#1C1C1C"/>
<ellipse cx="1542.67" cy="117" rx="100" ry="100" fill="#E62243"/>
<ellipse cx="1526" cy="117" rx="100" ry="100" fill="#EE7121"/>
<ellipse cx="1509.33" cy="117" rx="100" ry="100" fill="#F7A720"/>
<ellipse cx="1492.67" cy="117" rx="100" ry="100" fill="#32AA4F"/>
<ellipse cx="1476" cy="117" rx="100" ry="100" fill="#00AB9E"/>
</g>
<defs>
<clipPath id="clip0_2_4">
<rect width="1662" height="235" fill="white"/>
</clipPath>
</defs>
</svg>
