<svg width="1230" height="240" viewBox="0 0 1230 240" fill="none" xmlns="http://www.w3.org/2000/svg">
<g clip-path="url(#clip0_3_12)">
<path d="M1067.95 78.6C1075.55 76.4 1085.35 74.4 1097.35 72.6C1109.35 70.6 1121.95 69.6 1135.15 69.6C1148.55 69.6 1159.65 71.4 1168.45 75C1177.45 78.4 1184.55 83.3 1189.75 89.7C1194.95 96.1 1198.65 103.7 1200.85 112.5C1203.05 121.3 1204.15 131.1 1204.15 141.9V231H1159.45V147.3C1159.45 132.9 1157.55 122.7 1153.75 116.7C1149.95 110.7 1142.85 107.7 1132.45 107.7C1129.25 107.7 1125.85 107.9 1122.25 108.3C1118.65 108.5 1115.45 108.8 1112.65 109.2V231H1067.95V78.6Z" fill="#EB593C"/>
<path d="M1040.93 231H996.232V73.2H1040.93V231ZM1045.13 27.6C1045.13 35.8 1042.43 42.3 1037.03 47.1C1031.83 51.7 1025.63 54 1018.43 54C1011.23 54 1004.93 51.7 999.532 47.1C994.332 42.3 991.732 35.8 991.732 27.6C991.732 19.4 994.332 13 999.532 8.39998C1004.93 3.59998 1011.23 1.19998 1018.43 1.19998C1025.63 1.19998 1031.83 3.59998 1037.03 8.39998C1042.43 13 1045.13 19.4 1045.13 27.6Z" fill="#EB593C"/>
<path d="M979.77 112.8C975.77 111.8 971.07 110.8 965.67 109.8C960.27 108.6 954.47 108 948.27 108C945.47 108 942.07 108.3 938.07 108.9C934.27 109.3 931.37 109.8 929.37 110.4V231H884.67V81.6C892.67 78.8 902.07 76.2 912.87 73.8C923.87 71.2 936.07 69.9 949.47 69.9C951.87 69.9 954.77 70.1 958.17 70.5C961.57 70.7 964.97 71.1 968.37 71.7C971.77 72.1 975.17 72.7 978.57 73.5C981.97 74.1 984.87 74.9 987.27 75.9L979.77 112.8Z" fill="#2B275C"/>
<path d="M716.975 153.3C716.975 139.3 719.075 127.1 723.275 116.7C727.675 106.1 733.375 97.3 740.375 90.3C747.375 83.3 755.375 78 764.375 74.4C773.575 70.8 782.975 69 792.575 69C814.975 69 832.675 75.9 845.675 89.7C858.675 103.3 865.175 123.4 865.175 150C865.175 152.6 865.075 155.5 864.875 158.7C864.675 161.7 864.475 164.4 864.275 166.8H762.875C763.875 176 768.175 183.3 775.775 188.7C783.375 194.1 793.575 196.8 806.375 196.8C814.575 196.8 822.575 196.1 830.375 194.7C838.375 193.1 844.875 191.2 849.875 189L855.875 225.3C853.475 226.5 850.275 227.7 846.275 228.9C842.275 230.1 837.775 231.1 832.775 231.9C827.975 232.9 822.775 233.7 817.175 234.3C811.575 234.9 805.975 235.2 800.375 235.2C786.175 235.2 773.775 233.1 763.175 228.9C752.775 224.7 744.075 219 737.075 211.8C730.275 204.4 725.175 195.7 721.775 185.7C718.575 175.7 716.975 164.9 716.975 153.3ZM821.975 136.2C821.775 132.4 821.075 128.7 819.875 125.1C818.875 121.5 817.175 118.3 814.775 115.5C812.575 112.7 809.675 110.4 806.075 108.6C802.675 106.8 798.375 105.9 793.175 105.9C788.175 105.9 783.875 106.8 780.275 108.6C776.675 110.2 773.675 112.4 771.275 115.2C768.875 118 766.975 121.3 765.575 125.1C764.375 128.7 763.475 132.4 762.875 136.2H821.975Z" fill="#2B275C"/>
<path d="M610.533 33.9L655.233 26.7V73.2H708.933V110.4H655.233V165.9C655.233 175.3 656.833 182.8 660.033 188.4C663.433 194 670.133 196.8 680.133 196.8C684.933 196.8 689.833 196.4 694.833 195.6C700.033 194.6 704.733 193.3 708.933 191.7L715.233 226.5C709.833 228.7 703.833 230.6 697.233 232.2C690.633 233.8 682.533 234.6 672.933 234.6C660.733 234.6 650.633 233 642.633 229.8C634.633 226.4 628.233 221.8 623.433 216C618.633 210 615.233 202.8 613.233 194.4C611.433 186 610.533 176.7 610.533 166.5V33.9Z" fill="#2B275C"/>
<path d="M526.728 198.9C534.928 198.9 540.728 198.1 544.128 196.5C547.528 194.9 549.228 191.8 549.228 187.2C549.228 183.6 547.028 180.5 542.628 177.9C538.228 175.1 531.528 172 522.528 168.6C515.528 166 509.128 163.3 503.328 160.5C497.728 157.7 492.928 154.4 488.928 150.6C484.928 146.6 481.828 141.9 479.628 136.5C477.428 131.1 476.328 124.6 476.328 117C476.328 102.2 481.828 90.5 492.828 81.9C503.828 73.3 518.928 69 538.128 69C547.728 69 556.928 69.9 565.728 71.7C574.528 73.3 581.528 75.1 586.728 77.1L578.928 111.9C573.728 110.1 568.028 108.5 561.828 107.1C555.828 105.7 549.028 105 541.428 105C527.428 105 520.428 108.9 520.428 116.7C520.428 118.5 520.728 120.1 521.328 121.5C521.928 122.9 523.128 124.3 524.928 125.7C526.728 126.9 529.128 128.3 532.128 129.9C535.328 131.3 539.328 132.9 544.128 134.7C553.928 138.3 562.028 141.9 568.428 145.5C574.828 148.9 579.828 152.7 583.428 156.9C587.228 160.9 589.828 165.4 591.228 170.4C592.828 175.4 593.628 181.2 593.628 187.8C593.628 203.4 587.728 215.2 575.928 223.2C564.328 231.2 547.828 235.2 526.428 235.2C512.428 235.2 500.728 234 491.328 231.6C482.128 229.2 475.728 227.2 472.128 225.6L479.628 189.3C487.228 192.3 495.028 194.7 503.028 196.5C511.028 198.1 518.928 198.9 526.728 198.9Z" fill="#2B275C"/>
<path d="M390.907 199.8C395.307 199.8 399.507 199.7 403.507 199.5C407.507 199.3 410.707 199 413.107 198.6V164.7C411.307 164.3 408.607 163.9 405.007 163.5C401.407 163.1 398.107 162.9 395.107 162.9C390.907 162.9 386.907 163.2 383.107 163.8C379.507 164.2 376.307 165.1 373.507 166.5C370.707 167.9 368.507 169.8 366.907 172.2C365.307 174.6 364.507 177.6 364.507 181.2C364.507 188.2 366.807 193.1 371.407 195.9C376.207 198.5 382.707 199.8 390.907 199.8ZM387.307 69C400.507 69 411.507 70.5 420.307 73.5C429.107 76.5 436.107 80.8 441.307 86.4C446.707 92 450.507 98.8 452.707 106.8C454.907 114.8 456.007 123.7 456.007 133.5V226.5C449.607 227.9 440.707 229.5 429.307 231.3C417.907 233.3 404.107 234.3 387.907 234.3C377.707 234.3 368.407 233.4 360.007 231.6C351.807 229.8 344.707 226.9 338.707 222.9C332.707 218.7 328.107 213.3 324.907 206.7C321.707 200.1 320.107 192 320.107 182.4C320.107 173.2 321.907 165.4 325.507 159C329.307 152.6 334.307 147.5 340.507 143.7C346.707 139.9 353.807 137.2 361.807 135.6C369.807 133.8 378.107 132.9 386.707 132.9C392.507 132.9 397.607 133.2 402.007 133.8C406.607 134.2 410.307 134.8 413.107 135.6V131.4C413.107 123.8 410.807 117.7 406.207 113.1C401.607 108.5 393.607 106.2 382.207 106.2C374.607 106.2 367.107 106.8 359.707 108C352.307 109 345.907 110.5 340.507 112.5L334.807 76.5C337.407 75.7 340.607 74.9 344.407 74.1C348.407 73.1 352.707 72.3 357.307 71.7C361.907 70.9 366.707 70.3 371.707 69.9C376.907 69.3 382.107 69 387.307 69Z" fill="#2B275C"/>
<path d="M289.789 -1.80002C298.189 -1.80002 305.889 -0.900018 312.889 0.899982C319.889 2.49997 325.289 4.09997 329.089 5.69997L320.389 41.4C316.389 39.6 311.989 38.3 307.189 37.5C302.589 36.5 298.289 36 294.289 36C288.889 36 284.289 36.8 280.489 38.4C276.889 39.8 273.989 41.8 271.789 44.4C269.789 47 268.289 50.1 267.289 53.7C266.489 57.3 266.089 61.2 266.089 65.4V73.2H321.289V110.4H266.089V231H221.389V64.8C221.389 44.4 227.089 28.2 238.489 16.2C250.089 4.19999 267.189 -1.80002 289.789 -1.80002Z" fill="#2B275C"/>
<path d="M31 47.05C31 29.3769 45.3269 15.05 63 15.05C80.6731 15.05 95 29.3769 95 47.05V192C95 209.673 80.6731 224 63 224C45.3269 224 31 209.673 31 192V47.05Z" fill="#8A89AD"/>
<path d="M66 47.05C66 29.3769 80.3269 15.05 98 15.05C115.673 15.05 130 29.3769 130 47.05V192C130 209.673 115.673 224 98 224C80.3269 224 66 209.673 66 192V47.05Z" fill="#616194"/>
<path d="M101 47.05C101 29.3769 115.327 15.05 133 15.05C150.673 15.05 165 29.3769 165 47.05V192C165 209.673 150.673 224 133 224C115.327 224 101 209.673 101 192V47.05Z" fill="#363371"/>
<path d="M136 46C136 28.3269 150.327 14 168 14C185.673 14 200 28.3269 200 46V190.95C200 208.623 185.673 222.95 168 222.95C150.327 222.95 136 208.623 136 190.95V46Z" fill="#2B275C"/>
</g>
<defs>
<clipPath id="clip0_3_12">
<rect width="1230" height="240" fill="white"/>
</clipPath>
</defs>
</svg>
